<svg viewBox="0 0 675 675" fill="none" xmlns="http://www.w3.org/2000/svg">
<circle cx="337.5" cy="338" r="200" stroke="white" stroke-width="100"/>
<circle cx="336.5" cy="337" r="75" fill="white"/>
<path fill-rule="evenodd" clip-rule="evenodd" d="M393.055 8.51374C392.319 3.61984 388.115 0 383.166 0H291.834C286.885 0 282.681 3.61984 281.945 8.51374L254.319 192.325C253.009 201.044 263.077 207.436 270.976 203.521C291.023 193.585 313.609 188 337.5 188C361.391 188 383.977 193.585 404.024 203.521C411.923 207.436 421.991 201.044 420.681 192.325L393.055 8.51374ZM420.519 483.75C421.829 475.038 411.777 468.647 403.879 472.55C383.868 482.442 361.333 488 337.5 488C313.667 488 291.132 482.442 271.121 472.55C263.223 468.647 253.171 475.038 254.481 483.75L281.945 666.486C282.681 671.38 286.885 675 291.834 675H383.166C388.115 675 392.319 671.38 393.055 666.486L420.519 483.75Z" fill="white"/>
<path fill-rule="evenodd" clip-rule="evenodd" d="M609.412 144.155C612.352 140.174 611.939 134.642 608.439 131.142L543.858 66.5607C540.358 63.0613 534.826 62.6479 530.845 65.5883L381.336 176.028C374.245 181.266 376.844 192.906 385.198 195.723C406.399 202.873 426.319 214.894 443.212 231.788C460.106 248.681 472.127 268.601 479.277 289.802C482.094 298.156 493.734 300.755 498.972 293.664L609.412 144.155ZM292.79 499.618C299.875 494.383 297.287 482.756 288.942 479.932C267.798 472.776 247.933 460.772 231.08 443.92C214.228 427.067 202.224 407.202 195.068 386.058C192.244 377.713 180.617 375.125 175.382 382.21L65.5883 530.845C62.6479 534.826 63.0614 540.358 66.5607 543.858L131.142 608.439C134.642 611.939 140.174 612.352 144.155 609.412L292.79 499.618Z" fill="white"/>
<path fill-rule="evenodd" clip-rule="evenodd" d="M666.486 393.055C671.38 392.319 675 388.115 675 383.166L675 291.834C675 286.885 671.38 282.681 666.486 281.945L482.675 254.319C473.956 253.009 467.564 263.077 471.479 270.976C481.415 291.023 487 313.609 487 337.5C487 361.391 481.415 383.977 471.479 404.024C467.564 411.923 473.956 421.991 482.675 420.681L666.486 393.055ZM191.25 420.519C199.962 421.829 206.353 411.777 202.45 403.879C192.558 383.868 187 361.333 187 337.5C187 313.667 192.558 291.132 202.45 271.121C206.353 263.223 199.962 253.171 191.25 254.481L8.51374 281.945C3.61983 282.681 -1.42857e-06 286.885 -1.6449e-06 291.834L-5.63715e-06 383.166C-5.85347e-06 388.115 3.61982 392.319 8.51372 393.055L191.25 420.519Z" fill="white"/>
<path fill-rule="evenodd" clip-rule="evenodd" d="M530.845 609.412C534.826 612.352 540.358 611.939 543.858 608.439L608.439 543.858C611.938 540.358 612.352 534.826 609.411 530.845L498.972 381.336C493.733 374.245 482.094 376.844 479.277 385.198C472.127 406.399 460.106 426.319 443.212 443.212C426.319 460.106 406.399 472.127 385.198 479.277C376.844 482.094 374.245 493.734 381.336 498.972L530.845 609.412ZM175.382 292.789C180.616 299.875 192.243 297.287 195.068 288.942C202.223 267.798 214.228 247.933 231.08 231.08C247.933 214.228 267.798 202.224 288.942 195.068C297.286 192.244 299.875 180.617 292.789 175.382L144.155 65.5883C140.174 62.6479 134.641 63.0613 131.142 66.5607L66.5606 131.142C63.0612 134.642 62.6477 140.174 65.5881 144.155L175.382 292.789Z" fill="white"/>
</svg>
