<svg width="500" height="750" viewBox="0 0 500 750" fill="none" xmlns="http://www.w3.org/2000/svg">
<path fill-rule="evenodd" clip-rule="evenodd" d="M285 520.635C305.923 508.532 320 485.91 320 460C320 421.34 288.66 390 250 390C211.34 390 180 421.34 180 460C180 485.91 194.077 508.532 215 520.635V590C215 601.046 223.954 610 235 610H265C276.046 610 285 601.046 285 590V520.635ZM150 250H350V175C350 119.772 305.228 75 250 75C194.772 75 150 119.772 150 175V250ZM75 250H20C8.9543 250 0 258.954 0 270V730C0 741.046 8.95432 750 20 750H480C491.046 750 500 741.046 500 730V270C500 258.954 491.046 250 480 250H425V175C425 78.3502 346.65 0 250 0C153.35 0 75 78.3502 75 175V250Z" fill="white"/>
</svg>
