<svg width="785" height="329" viewBox="0 0 785 329" fill="none" xmlns="http://www.w3.org/2000/svg">
<circle cx="50" cy="198" r="50" fill="white"/>
<circle cx="735" cy="198" r="50" fill="white"/>
<path d="M255 329H131L135.5 307.5C148.833 307.5 158.833 306.5 165.5 304.5C172.5 302.5 177.833 297.667 181.5 290C185.167 282.333 188.667 270 192 253L230.5 68.5C233.167 55.8333 234 46.1666 233 39.5C232.333 32.8333 229.167 28.3333 223.5 26C217.833 23.3333 208.667 22 196 22L200.5 0.5H338L381.5 232H385.5L525.5 0.5H654L649 22C638 22 629.167 23.3333 622.5 26C615.833 28.3333 610.667 32.8333 607 39.5C603.333 46.1666 600 55.6667 597 68L556 267C552.333 283.667 552.833 294.667 557.5 300C562.5 305 573.333 307.5 590 307.5L586 329H427.5L432 307.5C444.333 307.5 453.667 306.5 460 304.5C466.667 302.167 471.667 298.167 475 292.5C478.333 286.5 481.167 278 483.5 267L525 68H522L361 329H322.5L269.5 68H266.5L228 253C224.667 270 223.167 282.333 223.5 290C223.833 297.667 226.833 302.5 232.5 304.5C238.5 306.5 247.667 307.5 260 307.5L255 329Z" fill="white"/>
</svg>
