<svg width="475" height="573" viewBox="0 0 475 573" fill="none" xmlns="http://www.w3.org/2000/svg">
<circle cx="50" cy="523" r="50" fill="white"/>
<circle cx="425" cy="523" r="50" fill="white"/>
<circle cx="243" cy="50" r="50" fill="white"/>
<path d="M228 479C198 479 173.5 473.667 154.5 463C135.5 452.333 121.5 437.667 112.5 419C103.833 400 99.5 378.5 99.5 354.5C99.5 320.5 104.5 290.167 114.5 263.5C124.833 236.833 139.333 214.167 158 195.5C176.667 176.833 198.833 162.667 224.5 153C250.167 143.333 278.333 138.5 309 138.5C325.333 138.5 338 139.833 347 142.5C356.333 145.167 363.667 148 369 151C374.667 153.667 379.833 155 384.5 155C389.833 155 393.833 153.167 396.5 149.5C399.167 145.833 401.333 142.167 403 138.5H424.5L398.5 261.5H375.5C375.167 230.167 368.833 206.333 356.5 190C344.167 173.667 325.833 165.5 301.5 165.5C280.167 165.5 261.5 170.333 245.5 180C229.5 189.333 216.167 202.333 205.5 219C195.167 235.667 187.333 254.5 182 275.5C177 296.5 174.5 318.5 174.5 341.5C174.5 375.5 182 398.833 197 411.5C212 424.167 233.333 430.5 261 430.5C277.333 430.5 291.667 428.667 304 425C316.667 421 328.333 415.333 339 408C350 400.333 361.167 391.167 372.5 380.5L385 394.5C372.667 408.5 359.333 422 345 435C330.667 448 314 458.667 295 467C276.333 475 254 479 228 479Z" fill="white"/>
</svg>
