<svg width="586" height="341" viewBox="0 0 586 341" fill="none" xmlns="http://www.w3.org/2000/svg">
<path d="M259 341C229 341 204.5 335.667 185.5 325C166.5 314.333 152.5 299.667 143.5 281C134.833 262 130.5 240.5 130.5 216.5C130.5 182.5 135.5 152.167 145.5 125.5C155.833 98.8333 170.333 76.1667 189 57.5C207.667 38.8334 229.833 24.6667 255.5 15C281.167 5.33333 309.333 0.5 340 0.5C356.333 0.5 369 1.83334 378 4.50001C387.333 7.16666 394.667 9.99998 400 13C405.667 15.6667 410.833 17 415.5 17C420.833 17 424.833 15.1667 427.5 11.5C430.167 7.83333 432.333 4.16666 434 0.5H455.5L429.5 123.5H406.5C406.167 92.1667 399.833 68.3333 387.5 52C375.167 35.6667 356.833 27.5 332.5 27.5C311.167 27.5 292.5 32.3333 276.5 42C260.5 51.3333 247.167 64.3333 236.5 81C226.167 97.6667 218.333 116.5 213 137.5C208 158.5 205.5 180.5 205.5 203.5C205.5 237.5 213 260.833 228 273.5C243 286.167 264.333 292.5 292 292.5C308.333 292.5 322.667 290.667 335 287C347.667 283 359.333 277.333 370 270C381 262.333 392.167 253.167 403.5 242.5L416 256.5C403.667 270.5 390.333 284 376 297C361.667 310 345 320.667 326 329C307.333 337 285 341 259 341Z" fill="white"/>
<circle cx="50" cy="171" r="50" fill="white"/>
<circle cx="536" cy="171" r="50" fill="white"/>
</svg>
