<svg width="785" height="573" viewBox="0 0 785 573" fill="none" xmlns="http://www.w3.org/2000/svg">
<circle cx="50" cy="523" r="50" fill="white"/>
<circle cx="735" cy="523" r="50" fill="white"/>
<circle cx="393" cy="50" r="50" fill="white"/>
<path d="M255 473H131L135.5 451.5C148.833 451.5 158.833 450.5 165.5 448.5C172.5 446.5 177.833 441.667 181.5 434C185.167 426.333 188.667 414 192 397L230.5 212.5C233.167 199.833 234 190.167 233 183.5C232.333 176.833 229.167 172.333 223.5 170C217.833 167.333 208.667 166 196 166L200.5 144.5H338L381.5 376H385.5L525.5 144.5H654L649 166C638 166 629.167 167.333 622.5 170C615.833 172.333 610.667 176.833 607 183.5C603.333 190.167 600 199.667 597 212L556 411C552.333 427.667 552.833 438.667 557.5 444C562.5 449 573.333 451.5 590 451.5L586 473H427.5L432 451.5C444.333 451.5 453.667 450.5 460 448.5C466.667 446.167 471.667 442.167 475 436.5C478.333 430.5 481.167 422 483.5 411L525 212H522L361 473H322.5L269.5 212H266.5L228 397C224.667 414 223.167 426.333 223.5 434C223.833 441.667 226.833 446.5 232.5 448.5C238.5 450.5 247.667 451.5 260 451.5L255 473Z" fill="white"/>
</svg>
