<svg width="169" height="250" viewBox="0 0 169 250" fill="none" xmlns="http://www.w3.org/2000/svg">
<path d="M98.5934 206.564V43.4363C98.916 35.5534 104.239 30.0837 114.562 27.027C125.046 23.8095 139.563 21.7181 158.112 20.7529C159.725 16.731 159.725 12.7896 158.112 8.92857H11.0086C9.23431 12.7896 9.23431 16.731 11.0086 20.7529C17.4605 21.7181 21.9769 22.4421 24.5576 22.9247C27.2997 23.4073 31.7354 24.5335 37.8647 26.3031C43.994 27.9118 48.4297 30.0837 51.1718 32.8185C54.0752 35.5534 55.5268 39.0927 55.5268 43.4363C57.4624 97.8121 57.4624 152.188 55.5268 206.564C55.5268 210.746 54.0752 214.286 51.1718 217.181C48.4297 219.916 43.994 222.169 37.8647 223.938C31.7354 225.547 27.2997 226.593 24.5576 227.075C21.9769 227.558 17.4605 228.282 11.0086 229.247C9.23431 233.269 9.23431 237.21 11.0086 241.071H158.112C159.725 237.21 159.725 233.269 158.112 229.247C139.563 228.282 124.966 226.271 114.32 223.214C103.836 219.997 98.5934 214.447 98.5934 206.564ZM45.607 206.081C47.8652 153.636 47.8652 99.5817 45.607 43.9189C45.2844 37.9665 30.7676 33.0598 2.05655 29.1988C-0.685516 19.5463 -0.685516 9.81338 2.05655 0H167.064C169.645 9.81338 169.645 19.5463 167.064 29.1988C144.483 32.7381 133.031 37.6448 132.708 43.9189C130.127 94.9163 130.127 148.97 132.708 206.081C133.031 212.355 144.483 217.262 167.064 220.801C169.645 230.454 169.645 240.187 167.064 250H2.05655C-0.685516 240.187 -0.685516 230.454 2.05655 220.801C30.7676 216.94 45.2844 212.033 45.607 206.081Z" fill="white"/>
</svg>
